<svg width="563" height="131" viewBox="0 0 563 131" fill="none" xmlns="http://www.w3.org/2000/svg">
<path fill-rule="evenodd" clip-rule="evenodd" d="M250.902 73.0913C249.013 77.3993 245.676 79.5893 240.977 79.5998C240.922 79.5998 240.869 79.5998 240.815 79.5998C234.949 79.5998 230.8 75.6941 229.969 69.3703C229.522 65.9705 229.863 62.9774 231.008 60.2215C232.725 56.0907 236.346 53.7416 240.863 53.7416C241.368 53.7416 241.884 53.7701 242.411 53.8302C247.75 54.4336 251.319 58.3873 251.956 64.4034C252.324 67.8543 251.987 70.6146 250.902 73.0913ZM251.686 43.4911C246.772 41.3987 241.45 40.8508 235.869 41.858C227.677 43.3365 221.757 47.6099 218.274 54.5612C215.672 59.7593 214.899 65.5592 215.977 71.802C216.935 77.3348 219.369 81.9444 223.212 85.5003C227.83 89.7708 233.652 91.9683 241.076 92.2144C241.735 92.1244 242.398 92.0493 243.06 91.9728C244.503 91.8091 245.996 91.6395 247.437 91.3108C255.102 89.5681 260.637 85.1911 263.89 78.3029C266.12 73.5807 266.863 68.3871 266.096 62.8679C264.802 53.5255 259.953 47.0065 251.686 43.4911Z" fill="black"/>
<path d="M47.5979 100.133L30.3223 82.8694L47.99 65.2146L56.3573 73.5758L64.7246 65.2146L73.6337 74.1171L47.5979 100.133Z" fill="#91C4F6"/>
<path d="M47.99 65.2146L30.3223 47.5598L47.5979 30.2969L73.6337 56.3128L64.7246 65.2146L56.3573 56.8535L47.99 65.2146Z" fill="#91C4F6"/>
<path d="M56.3575 73.5756L47.9902 65.2145L56.3575 56.8533L64.7249 65.2145L56.3575 73.5756Z" fill="#69AFF6"/>
<path d="M74.5852 126.014L57.3096 108.75L100.905 65.186L109.175 73.4485L117.726 64.9026L126.734 73.9031L74.5852 126.014Z" fill="#91C4F6"/>
<path d="M100.905 65.1861L57.0259 21.3382L74.3015 4.0752L126.45 56.1856L117.726 64.9027L109.457 56.6403L100.905 65.1861Z" fill="#91C4F6"/>
<path d="M109.175 73.4487L100.906 65.1863L109.458 56.6404L117.726 64.9029L109.175 73.4487Z" fill="#69AFF6"/>
<path d="M65.2427 24.4023C71.9863 24.4023 77.4525 18.9401 77.4525 12.2015C77.4525 5.46296 71.9863 0 65.2427 0C58.4992 0 53.0322 5.46296 53.0322 12.2015C53.0322 18.9401 58.4992 24.4023 65.2427 24.4023Z" fill="#026DF5"/>
<path d="M118.234 77.3562C124.978 77.3562 130.445 71.894 130.445 65.1554C130.445 58.4168 124.978 52.9539 118.234 52.9539C111.491 52.9539 106.024 58.4168 106.024 65.1554C106.024 71.894 111.491 77.3562 118.234 77.3562Z" fill="#026DF5"/>
<path d="M65.2024 105.947C58.4589 105.947 52.9927 111.409 52.9927 118.148C52.9927 124.886 58.4589 130.349 65.2024 130.349C71.946 130.349 77.4129 124.886 77.4129 118.148C77.4129 111.409 71.946 105.947 65.2024 105.947Z" fill="#026DF5"/>
<path d="M38.7061 79.4695C31.9626 79.4695 26.4956 84.9324 26.4956 91.671C26.4956 98.4096 31.9626 103.873 38.7061 103.873C45.4496 103.873 50.9166 98.4096 50.9166 91.671C50.9166 84.9324 45.4496 79.4695 38.7061 79.4695Z" fill="#026DF5"/>
<path d="M12.2105 52.9929C5.46696 52.9929 0 58.4559 0 65.1945C0 71.9331 5.46696 77.3953 12.2105 77.3953C18.954 77.3953 24.4203 71.9331 24.4203 65.1945C24.4203 58.4559 18.954 52.9929 12.2105 52.9929Z" fill="#026DF5"/>
<path d="M38.7264 50.8992C45.4699 50.8992 50.9369 45.4362 50.9369 38.6976C50.9369 31.959 45.4699 26.4968 38.7264 26.4968C31.9828 26.4968 26.5166 31.959 26.5166 38.6976C26.5166 45.4362 31.9828 50.8992 38.7264 50.8992Z" fill="#026DF5"/>
<path d="M65.222 77.3757C71.9655 77.3757 77.4325 71.9135 77.4325 65.1749C77.4325 58.4363 71.9655 52.9734 65.222 52.9734C58.4784 52.9734 53.0122 58.4363 53.0122 65.1749C53.0122 71.9135 58.4784 77.3757 65.222 77.3757Z" fill="#026DF5"/>
<path fill-rule="evenodd" clip-rule="evenodd" d="M316.515 54.645C315.099 49.3621 311.219 45.0668 305.874 42.8608C300.49 40.6389 294.544 40.9085 289.559 43.599C288.504 44.1686 287.59 44.9097 286.622 45.6926C286.375 45.8916 286.127 46.092 285.875 46.291C285.875 46.242 285.874 46.1944 285.874 46.1453C285.871 45.9435 285.868 45.7402 285.866 45.5354L285.878 44.4959C285.883 44.343 285.887 44.1888 285.897 44.0345C285.915 43.7995 285.905 43.5976 285.875 43.4909V42.4427H272.375V45.1721C272.402 56.6435 272.401 68.1162 272.399 79.589V89.2076H286.593L286.59 81.2573C286.589 75.5562 286.586 69.8522 286.602 64.1497C286.607 62.5031 286.754 60.3577 287.855 58.3751C289.118 56.0999 291.621 54.6393 294.551 54.4706C297.401 54.312 299.996 55.4294 301.477 57.474C302.91 59.4507 303.111 61.7216 303.117 63.883C303.132 69.5509 303.129 75.2188 303.128 80.8867L303.126 89.2235H317.177L317.224 88.5458C317.244 88.3194 317.26 88.1161 317.26 87.9114L317.266 81.1462C317.275 74.4489 317.283 67.5222 317.229 60.7109C317.211 58.3492 316.977 56.3652 316.515 54.645Z" fill="black"/>
<path fill-rule="evenodd" clip-rule="evenodd" d="M441.958 46.0182V41.7168H428.019V89.2235H442.273L442.271 80.9136C442.27 75.9007 442.268 70.8864 442.274 65.872C442.283 59.8651 445.527 56.145 451.656 55.1099C452.318 54.9986 453.005 54.9327 453.673 54.8698C453.988 54.8405 454.303 54.8098 454.618 54.7761L454.957 54.738V41.3684H454.574C449.008 41.3728 444.968 42.8559 441.958 46.0182Z" fill="black"/>
<path fill-rule="evenodd" clip-rule="evenodd" d="M355.114 44.0177C353.55 48.0417 352.008 52.0716 350.464 56.103L345.748 68.4079C345.654 68.2119 345.575 68.0381 345.506 67.8612L344.256 64.6314C341.6 57.7621 338.942 50.8943 336.309 44.0162C336.282 43.9425 336.246 43.8674 336.203 43.7775L335.194 41.3684H320.266L321.484 44.3021C322.052 45.6724 322.603 47.0044 323.157 48.3276L323.644 49.4901C328.664 61.4812 333.853 73.8744 338.993 86.0614H338.991L340.316 89.2235H351.138L351.763 87.7427C356.011 77.5566 360.274 67.3765 364.54 57.1978L368.385 48.0108C368.867 46.86 369.349 45.7019 369.833 44.5305L371.149 41.3684H356.222L355.114 44.0177Z" fill="black"/>
<path fill-rule="evenodd" clip-rule="evenodd" d="M548.205 61.609H530.04C530.322 58.6594 531.357 56.4018 533.118 54.8917C535.03 53.2537 537.703 52.5723 541.059 52.8671C543.069 53.0431 545.002 54.114 546.363 55.8046C547.702 57.4667 548.365 59.5649 548.205 61.609ZM561.459 56.7403C559.378 50.2005 555.369 45.6837 549.538 43.3132C544.037 41.0766 538.176 40.7683 532.119 42.3927C524.283 44.4939 518.985 49.4695 516.37 57.181C514.651 62.2498 514.359 67.6239 515.504 73.1545C516.982 80.2929 520.639 85.5453 526.376 88.764C530.475 91.0623 534.836 92.2144 539.412 92.2144C542.196 92.2144 545.059 91.7888 547.989 90.9359C553.322 89.3837 557.4 86.3289 560.109 81.8572C560.883 80.5802 561.391 79.4852 561.713 78.4128L561.831 78.0203L548.411 75.0527L548.289 75.343C547.761 76.5944 546.99 77.6337 545.988 78.4414L545.657 78.7061C545.045 79.1799 544.35 79.5544 543.594 79.8176C543.274 79.9274 542.926 80.0282 542.458 80.1425C542.173 80.2102 541.889 80.2674 541.605 80.314L541.524 80.3275C540.879 80.4268 540.245 80.4719 539.611 80.4719C538.806 80.4629 537.98 80.3742 537.157 80.2057C532.836 79.3228 530.037 75.8288 530.098 71.4549L562.654 71.4504L562.678 69.7974C562.748 65.4851 562.822 61.0255 561.459 56.7403Z" fill="black"/>
<path fill-rule="evenodd" clip-rule="evenodd" d="M407.527 61.609H389.363C389.646 58.6595 390.679 56.4019 392.44 54.8917C394.352 53.2538 397.027 52.5709 400.381 52.8672C402.391 53.0432 404.325 54.1141 405.685 55.8047C407.026 57.4683 407.687 59.565 407.527 61.609ZM408.862 43.3132C403.361 41.0766 397.5 40.7683 391.443 42.3927C383.608 44.4939 378.309 49.4695 375.693 57.181C373.974 62.2513 373.682 67.6254 374.827 73.1545C376.306 80.2945 379.964 85.5453 385.701 88.764C389.798 91.0638 394.159 92.2144 398.735 92.2144C401.518 92.2144 404.382 91.7888 407.312 90.9359C412.645 89.3837 416.723 86.3289 419.432 81.8572C420.206 80.5802 420.716 79.4852 421.036 78.4128L421.154 78.0203L407.734 75.0527L407.611 75.343C407.083 76.5944 406.313 77.6337 405.311 78.4414L404.98 78.7061C404.368 79.1799 403.674 79.5544 402.917 79.8176C402.597 79.929 402.248 80.0282 401.78 80.1425C401.498 80.2102 401.213 80.2674 400.928 80.314L400.987 80.69L400.848 80.3275C400.202 80.4268 399.569 80.4734 398.934 80.4719C398.13 80.4629 397.304 80.3742 396.48 80.2057C392.158 79.3228 389.36 75.8288 389.422 71.4549L421.977 71.4489L422.001 69.7959C422.071 65.4851 422.144 61.0255 420.782 56.7403C418.701 50.2005 414.692 45.6822 408.862 43.3132Z" fill="black"/>
<path fill-rule="evenodd" clip-rule="evenodd" d="M471.614 66.8168C471.589 66.5283 471.566 66.2615 471.543 66.0803C471.733 61.3533 472.728 58.4606 474.978 56.0928C476.688 54.2948 479.42 53.2784 482.204 53.2784C483.154 53.2784 484.113 53.3973 485.038 53.6438C488.487 54.566 490.893 57.015 491.814 60.5384C492.928 64.7985 492.773 68.8004 491.349 72.4341C490.181 75.4138 487.99 77.293 484.837 78.0194C481.411 78.8125 478.419 78.2601 475.941 76.3853C473.756 74.7338 472.427 72.3543 471.88 69.1136C471.744 68.3205 471.676 67.5215 471.614 66.8168ZM493.141 43.1387C493.121 43.2663 493.112 43.4084 493.117 43.5737C493.144 44.3842 493.137 45.1933 493.131 45.9937L493.13 46.2735C492.854 46.0647 492.584 45.8545 492.314 45.6457C491.31 44.8656 490.36 44.1304 489.298 43.5432C486.166 41.8163 482.488 41.1304 478.046 41.4407C469.387 42.0512 462.275 47.6684 459.484 56.1C457.964 60.6921 457.571 65.6047 458.315 70.6985C458.983 75.2761 460.625 79.22 463.196 82.4201C467.487 87.7633 473.384 90.4037 480.716 90.2544C484.957 90.1717 488.51 88.9813 491.577 86.6164C491.815 86.4351 492.045 86.2452 492.267 86.0581C492.274 86.686 492.289 87.3095 492.304 87.93C492.349 89.9078 492.392 91.7754 492.211 93.6459C491.91 96.7314 490.221 99.0079 487.328 100.224C485.61 100.949 483.79 101.293 481.907 101.242L481.785 101.241C480.814 101.206 479.805 101.061 478.783 100.807L478.4 100.712C478.302 100.688 478.205 100.664 478.106 100.636C476.482 100.159 475.18 99.3646 474.231 98.2742C474.107 98.1336 473.984 97.977 473.822 97.7566C473.78 97.6957 473.739 97.6304 473.697 97.5666L473.523 97.2955C472.67 95.9296 471.997 94.0678 471.676 92.1886L471.611 91.8102L459.466 94.5507H459.082L459.163 95.0596C460.453 103.274 465.044 108.942 472.442 111.45C475.784 112.584 479.114 113.151 482.411 113.151C485.739 113.151 489.032 112.574 492.267 111.42C497.775 109.455 501.725 105.687 504.008 100.222C505.246 97.2563 505.824 93.9272 505.828 89.744C505.838 78.7343 505.837 67.7231 505.835 56.7134L505.839 42.1889H493.136L493.141 43.1387Z" fill="black"/>
<path fill-rule="evenodd" clip-rule="evenodd" d="M186.139 55.1533C190.418 55.1533 194.265 57.6344 196.176 61.6282L196.3 61.8877L209.519 59.156L209.389 58.7526C206.051 48.3535 196.707 41.3684 186.139 41.3684C172.624 41.3684 161.629 52.773 161.629 66.7907C161.629 80.8098 172.624 92.2144 186.139 92.2144C196.413 92.2144 205.673 85.4859 209.179 75.4709L209.323 75.0616L196.006 72.3076L195.875 72.5449C193.879 76.1724 190.148 78.4266 186.139 78.4266C179.955 78.4266 174.924 73.2078 174.924 66.7907C174.924 60.3736 179.955 55.1533 186.139 55.1533Z" fill="black"/>
</svg>
