<svg xmlns="http://www.w3.org/2000/svg" viewBox="0 0 6424.81 2902.81"><g id="Layer_2" data-name="Layer 2"><g id="Layer_1-2" data-name="Layer 1"><path d="M3608.8,1433.55q84.35,18.06,126.13,57.56,58.05,55,58,134.74,0,60.59-38.27,116t-104.85,80.93q-66.6,25.43-203.37,25.5H3064.17v-22.12h30.28c33.65,0,57.7-10.72,72.35-32.2q13.69-21,13.68-89V1179.66q0-75.32-17.24-95-23.09-26.22-68.79-26.29h-30.28v-22H3414q97.89,0,157,14.31,89.57,21.54,136.74,76.34t47.14,125.92q0,61-37,109.18T3608.8,1433.55Zm-313.23-33.15a451.06,451.06,0,0,0,50.53,6.17c18.9,1.43,39.7,2.11,62.51,2.11q87.26,0,131.19-18.79t67-57.49a162,162,0,0,0,23.18-84.58q0-70.87-58-121-57.81-50-169-50-59.71,0-107.49,13.15Zm0,388.8a604.27,604.27,0,0,0,137.53,16.15q108.66,0,165.62-48.73t57-120.48q0-47.21-26.45-90.81t-84.37-68.63q-58.05-25.11-143.5-25.14-37.14,0-63.4,1.21c-17.53.81-31.68,2.23-42.45,4.18Z" style="fill:#002e5f"></path><path d="M4246.63,1199.25h226.65v17.16h-12.46c-8.29,0-20.38,3.69-36.38,11.08s-30.41,18-43.5,31.79-29.15,36.37-48.31,67.52L4176,1572.05v163.5c0,40.18,4.49,65.31,13.57,75.24q18.46,20.26,58.18,20.33h21.33v17.15H3991v-17.15h23.29q41.65,0,59.13-25.14,10.68-15.36,10.66-70.43V1583L3906.41,1309.9q-31.59-48-42.87-59.92t-46.62-28.77c-6.38-3.17-15.62-4.8-27.71-4.8v-17.16h277.07v17.16h-14.36a82.79,82.79,0,0,0-41.45,10.61c-12.62,7-18.9,17.63-18.9,31.73q0,17.34,29.25,62.61l135,209.08,127.76-200q28.67-45.14,28.72-67.31a43,43,0,0,0-7-24.08c-4.59-7-11.19-12.57-19.85-16.58s-21.49-6-38.75-6Z" style="fill:#002e5f"></path><path d="M5149.48,1848.27h-174L4755,1544.54q-23.83.95-38.64,1c-4.07,0-8.45,0-13.05-.21s-9.5-.37-14.46-.74v188.53q0,61.86,13.36,76.82,18.14,21.22,54.43,21.23H4782v17.15H4503.9v-17.15h24.34c27.4,0,46.93-9.09,58.71-27q10.05-15,10-71V1314.39q0-61.77-13.3-76.71-18.69-21.23-55.43-21.27H4503.9v-17.16h236.21q103.26,0,152.26,15t83.2,55.49q34.22,40.4,34.16,96.3,0,59.79-39.07,103.75t-120.95,62l134.68,186.31q46,64.71,79,85.9t86.11,27ZM4688.84,1514c6,0,11.25.11,15.63.32s8.07.21,10.93.21q91.93,0,138.69-40c31.1-26.78,46.67-60.73,46.67-102.12q0-60.42-37.69-98.46-37.71-37.86-99.79-37.86-27.48,0-74.44,9.77Z" style="fill:#002e5f"></path><path d="M5127.68,1199.25h175.91l397.71,485.52V1312q0-60.35-13.62-75.28-17.9-20.28-56.71-20.27h-22.8v-17.16H5836v17.16h-23.28q-41.73,0-59.18,25.12-10.69,15.38-10.67,70.43v546.82h-17l-428.81-523v399.77c0,40.18,4.39,65.31,13.1,75.24,12.3,13.51,31.15,20.33,56.7,20.33h23.28v17.15H5162.36v-17.15h22.81q42.14,0,59.61-25.14,10.68-15.36,10.66-70.43V1285q-28.2-33.51-42.82-44.25c-9.71-7.12-24-13.78-42.81-20q-13.86-4.36-42.13-4.38Z" style="fill:#002e5f"></path><path d="M6052.49,1234.78v256h143.29q56.07,0,74.86-16.52,25.11-21.71,28-76.52h17.16v225.14h-17.16c-4.48-31.58-9-51.79-13.46-60.77q-8.71-16.71-28.56-26.29c-13.2-6.44-33.47-9.56-60.82-9.56H6052.49V1740c0,28.67,1.27,46.15,3.8,52.32a30.33,30.33,0,0,0,13.36,14.89c6.39,3.7,18.48,5.49,36.27,5.49h109.87q55,0,79.77-7.71t47.78-30.14q29.63-29.7,60.67-89.54h20.8l-56.13,162.92H5867.5v-17.15h23.07a90.07,90.07,0,0,0,43.66-11.25c10.19-5.17,17.21-12.88,20.85-23.23s5.55-31.52,5.55-63.57V1312c0-41.33-4.17-66.73-12.51-76.39q-17.27-19.17-57.55-19.16H5867.5v-17.16h502.14l6.17,142.07h-18.32q-10.12-51.08-22.38-70.22c-8.19-12.72-20.22-22.44-36.27-29.14q-19.24-7.12-67.69-7.18Z" style="fill:#002e5f"></path><path d="M3608.8,2473.26q84.35,18,126.13,57.55,58.05,55.13,58,134.9,0,60.66-38.17,116-38.33,55.52-104.85,81-66.68,25.43-203.42,25.45H3064.17v-22.07h30.28c33.63,0,57.7-10.77,72.4-32.2,9.08-14,13.63-43.61,13.63-89.07V2219.32q0-75.24-17.22-94.93c-15.41-17.47-38.33-26.29-68.81-26.29h-30.28v-22H3414q97.89,0,157,14.3,89.57,21.63,136.74,76.35t47.14,125.91q0,61-37,109.13T3608.8,2473.26Zm-313.18-33.2a436.41,436.41,0,0,0,50.48,6.23q28.35,2.13,62.45,2.11,87.35,0,131.3-18.74,43.8-18.76,67-57.55a162,162,0,0,0,23.18-84.58q0-70.87-58-121-57.89-50-168.95-50.05-59.79,0-107.49,13.15Zm0,389.05a605.91,605.91,0,0,0,137.48,16.1q108.66,0,165.62-48.73t57-120.43q0-47.28-26.45-90.91t-84.37-68.74q-58.05-25.11-143.5-25.13-37.14,0-63.4,1.21c-17.53.8-31.68,2.22-42.4,4.17Z" style="fill:#002e5f"></path><path d="M4467.21,2888.13h-174l-220.52-303.78q-23.76.95-38.65,1c-4,0-8.34-.06-13-.21s-9.5-.37-14.46-.74V2773q0,61.86,13.35,76.77,18.14,21.23,54.44,21.28h25.29v17.1h-278V2871H3846q41.11,0,58.71-27.09,10-15,10-71V2354.11q0-61.77-13.35-76.72-18.62-21.21-55.39-21.27h-24.33V2239h236.15q103.35,0,152.31,15.05t83.21,55.48q34.13,40.4,34.16,96.3,0,59.79-39.07,103.74t-121,62.2l134.74,186.37q45.93,64.7,78.93,85.84c22,14.15,50.78,23.18,86.11,27.09Zm-460.59-334.4c6,0,11.19.1,15.62.31s8.08.21,10.93.21q91.88,0,138.64-40.07t46.73-102.1q0-60.43-37.75-98.47-37.62-37.84-99.78-37.85-27.48,0-74.39,9.76Z" style="fill:#002e5f"></path><path d="M4717.93,2224.28q126.07,0,218.57,95.93t92.4,239.48q0,147.93-93.13,245.5t-225.49,97.62q-133.77,0-224.81-95.19t-91-246.45q0-154.59,105.17-252.2Q4590.78,2224.39,4717.93,2224.28Zm-9.13,34.32q-87.12,0-139.75,64.62-65.58,80.39-65.57,235.57,0,158.86,68,244.66,52.19,65,137.84,65.1,91.4,0,151-71.33t59.61-225.07q0-166.55-65.58-248.45Q4801.68,2258.53,4708.8,2258.6Z" style="fill:#002e5f"></path><path d="M5461.92,2224.28V2448.4h-17.1q-8.71-64.62-31-102.85c-14.89-25.6-36.11-45.77-63.62-60.76s-56-22.55-85.48-22.55c-33.2,0-60.77,10.14-82.52,30.46s-32.57,43.35-32.57,69.22c0,19.85,6.81,37.85,20.48,54.17q29.63,36,141,95.82,90.83,48.87,124.17,75,33.49,26.05,51.48,61.46a161.75,161.75,0,0,1,18.05,74.17q0,73.57-57.33,127-57.18,53.3-147.3,53.32a314.67,314.67,0,0,1-53.22-4.28c-9.87-1.58-30.46-7.39-61.56-17.42s-50.89-15.05-59.18-15.05c-8,0-14.31,2.43-19,7.18s-8.13,14.63-10.34,29.57h-17.11V2680h17.11q12.51,70.08,33.52,105.06t64.41,58q43.32,23.13,95,23.07,59.86,0,94.56-31.73t34.68-75.18q0-24-13-48.57c-8.71-16.36-22.17-31.57-40.54-45.72q-18.54-14.42-101.95-60.77t-118.42-74q-35.16-27.71-53.33-61.24t-18.1-73.7q0-69.86,53.69-120.37T5264,2224.28q51.8,0,109.82,25,26.83,11.8,37.91,11.78c8.28,0,15.1-2.43,20.32-7.34s9.5-14.68,12.78-29.41Z" style="fill:#002e5f"></path><path d="M1357.84,1772.14c-2.95-25.5-8.28-39.7-19.63-49.47-10.38-9.29-25.66-13.14-50.9-13.14H1146.4l-1.16,12.09-75.13,822.29h167.31c10.93,0,23-.64,38.94-6.39h.66c20.24-7.4,37.77-19.06,51-85.53C1341.21,2383.88,1360.2,1795.69,1357.84,1772.14Zm-56,674.57c-11.14,57.28-23.65,62.4-33.63,65.36l-.74.42a83.42,83.42,0,0,1-30,4.91h-70.75l63.65-698.59s61.64,0,100.92-.42C1328,1959.51,1312.55,2392,1301.83,2446.71Z" style="fill:#002e5f"></path><path d="M2260.12,2447.13c-2.53-72.54-61.74-627.89-71.93-675-12.12-57.55-45.43-62.61-75.53-62.61h-145.4l45.43,831,12.54.42c5.49,0,130.06,1.9,159.34,0C2208.33,2539.05,2263.52,2535.41,2260.12,2447.13ZM2182.88,2514c-14.63,1.43-55.17,1.43-91.44.79l-38-696h115c17.79,140.28,63,566.34,65.15,629.38C2235.94,2510.59,2206.64,2512.07,2182.88,2514Z" style="fill:#002e5f;fill-rule:evenodd"></path><path d="M1382.87,1206c-2.11-22.91-3.27-33.52-15.26-46.25-12.93-13.78-33.42-17-43.4-17H1185.76l-32,485.79h143.55c11,0,31.63,0,48.81-14.42,16.34-13.57,23.34-38.85,24.39-52.16,0-3.43,1-10.61,2.14-18.06,1.58-12.66,4-29,4.36-41.28l.53-13.15c6-168.9,8.18-258.87,6.25-276.24Zm-32,282.21-.45,13.14c-.32,11.25-2.35,26.72-4,39-1.27,8.45-2.43,15.74-2.67,20.38-.5,8.87-5.94,26.24-14.52,33-9.1,7.61-20.9,8.45-31.94,8.45h-50.39l23.36-350.79h87.61C1357.42,1288.26,1355.73,1358.48,1350.88,1488.16Zm1002.18-333.1Zm138.57,742.74c-16.34-51-41-82.37-59.21-99.58-6.37-19.74-13.57-36.48-21.62-50.89,2.11-2.17,4.43-4.07,7.63-7.66,23.33-20.59,37.32-62,41.36-106.11,4-43.72-13.36-264.84-20.59-295.2-5.07-20.38-7.63-56-32.23-90.38h0l-53.91-92.92v.42c-12.32-20.85-31-41.6-60.68-59.66-74.28-45.19-157.44-45.19-197.56-45.19H1724.3V1064l2,295.61h-28.46V997.14a27.26,27.26,0,0,0,22.28-26.71,27.88,27.88,0,0,0-5.93-17V402.56h160.63l10.4-38.59h828.22l-20-93.82-22.88-19.95-17.82-89.55H2404.2L903.75,15.73,894.93,0h-9.55L396.6,124.17H86L0,313.66l39.57,92.07H538.88l34-57.49h133L66.1,2809.36h0l45,73.6h245L896.31,465.81l-1.9-54.75,34-47.09h659.52v37.75h83.84V953.85a26.13,26.13,0,0,0-5.55,16.58,27.27,27.27,0,0,0,22.28,26.71v362.45h-20c0-50.11-9.1-88.28-25.87-116.73h0l-56.43-95.51c-6.36-11.83-14-23.13-22.92-32.42-22.06-23.33-51.37-39.49-90.3-49.26-32.76-8.71-72.78-13.14-125.84-14-133.57-2.53-354.36-1-356.79-1l-11.46.63L750.54,2813.37l86.8,82.58.42-2.12-.21,2.54s444.74,4.43,543.63-5.49c98.68-10.67,170.85-45,211.58-91.92,40.73-46.25,66-123.91,66-237,0-113.56,5.1-612.22,3.62-635.76s-11.46-79.35-37.78-113.35a204.68,204.68,0,0,0-28.66-29.89c-2.35-8.92-4.65-17.63-8-27,50.92-34.37,76-104.17,79.8-175.92,4-79.19.39-196.09.39-196.09.42-6.18.42-11.67.42-17.16h57.76l8.9,1446.13,84.66,82.36.21.64s417.61,3.8,499.92,0c82.78-4.07,179.55-30.15,228.34-77.46,48.38-47.14,59.84-134.31,54.32-212.87C2597.51,2527.54,2512.22,1962.05,2491.63,1897.8Zm-909.24-414.08c-2.17,40-10.86,76.92-25.08,106.54q-23.52,48.39-63.86,67.53l-24.52,11.4,24.28,12.36c.24.42,25.08,12.72,48.84,43.92,22.49,28.62,33.52,79.14,35.21,106.07.85,13.14-.42,193.76-1.69,353.57-1,119.84-2.14,233.19-2.14,280.71,0,103.11-21.4,182.09-62.58,228.71s-113,77.72-202.87,87c-86.66,8.92-448.89,6.39-527.29,6,3.8-28.87,218.67-1687.24,221.63-1709.95,47.2-.42,228.66-1.26,344.38.9,104,1.64,162.67,18.43,196.83,54.7,29.9,31.62,42.87,82.57,39.46,154.26v1.27C1583,1289.58,1586.61,1406.05,1582.39,1483.72ZM2511,2625.37c-8.5,38.22-23.36,68.37-43.92,87.85-46.91,45.41-144.08,69.64-219.21,73.44-73.23,3.59-415.08.84-486.35,0-.42-25.87-10.19-1683-10.4-1709.11h344c37.35,0,115.65,0,183.57,40.76,57.91,35.43,66.84,82.52,72.78,113.56,1.26,5,2.13,9.72,2.95,14.37,6.37,26.34,24.42,246.19,20.38,290.65-3.83,43.61-17.82,80.14-36.93,97.51-14.83,13.62-21.43,18.27-25.45,21.22a53.08,53.08,0,0,0-7,5.12l-13.78,14,17.82,7.61c.42,0,15.29,6.81,30.57,18.69,17,13.56,48.36,45.61,67.26,105.06,20.77,65.57,105.46,630.85,110.34,704.92C2520.27,2552.62,2518.16,2592.27,2511,2625.37ZM2080.19,1142.7l-122.25.21h-13.77l.6,13.78,18.27,471.8h12.72c21.65,0,130.3,0,141.34-1.69h2.56c7.2,0,20.77-.42,32.23-12.3s17.63-32.9,19.11-64.26c3.38-70.58-12.3-311.19-22.91-352.37C2136.21,1152.05,2113.06,1142.7,2080.19,1142.7Zm64.49,406.91c-1.71,31.36-8.26,42.76-11.88,46.62-3.82,3.8-7.41,3.8-13.59,3.8l-5.49.47c-4.7.8-35.67.8-70.27,1.22l-13.57-349.94s60.5-.43,99.1-.43c7.65,73,15.91,204.81,15.91,273.87C2144.89,1534.35,2144.89,1542.8,2144.68,1549.61ZM434.45,189.06V176.34L863.63,67.26l-2.22,13.62-82,108.18Zm84.16,107.6-13.67,29.72H72.67l13.6-29.72,13-36.27,33.84-73.87s219.73,2.54,227.68,2.54,15,0,15,8.92c0,9.35,0,19.54,20.17,19.54,34.15,0,368.14,5.54,368.14,5.54L730,296.66Zm-211.76,2470-159.29-2.32,82.05-317.67H380Zm80.62-352.88H238l218.54-848.16H581.41Zm201.46-880.73H465.13L633.07,881.26H738ZM744.39,853.28H640.51l109.4-424.85h91.65Zm14-457.53,8.79-34.16H857l-8,34.16ZM904.6,262.5l-42,64.51H771.76l27.78-103.53h33.55l-3.51,38.39Zm57.7-73.44V114.41H921.44L922,66.47,2089.51,189.06Zm-8.36,71.33,18.13-37.33H2612l5.09,37.33Zm723.9,711.26a14.47,14.47,0,0,1,14.62-14.37,14.26,14.26,0,0,1,14.26,14.37,14.41,14.41,0,0,1-14.26,14.46A14.63,14.63,0,0,1,1677.84,971.65Z" style="fill:#002e5f"></path></g></g></svg>