<svg id="Layer_1" data-name="Layer 1" xmlns="http://www.w3.org/2000/svg" viewBox="0 0 587.6 188.2"><defs><style>.cls-1{fill:#d10020;}</style></defs><title>st-edward-color</title><path d="M110.2,438.8h8.4c8.5,0,14.1,5.4,14.1,15.6,0,9.2-4.9,15.6-14.2,15.6h-8.2l-.1-31.2Zm3.4,28.3h4.7c7.2,0,10.9-4.3,10.9-12.6,0-9.1-4.3-12.6-10.7-12.6h-4.8v25.2Zm40.1-1.9c-1.5,2.5-3.5,5.2-8.6,5.2s-9.8-3.5-9.8-11.7c0-7.3,3.6-11.7,9.2-11.7,4.7,0,8.5,3,8.5,10.2v2.1H138.4c0,4.9,2.9,8.4,6.6,8.4a7,7,0,0,0,6.2-3.8l2.5,1.3Zm-3.8-8.5c0-4.1-2-6.9-5.4-6.9-3.8,0-5.8,2.8-6,6.9Zm7.7,7.6a7.69,7.69,0,0,0,6.4,3.5c3.4,0,4.8-1.8,4.8-3.7,0-5.7-13.3-2.7-13-10.9.1-3.9,3.1-6.1,7.4-6a9.75,9.75,0,0,1,7.7,3.9l-2.2,1.9c-1.7-2.1-3.4-3.2-5.8-3.2-2.6,0-4.1,1.3-4.1,3.3,0,4.9,13,2.4,13,10.7,0,4.4-3.8,6.6-7.9,6.6a11.18,11.18,0,0,1-9-4.3Zm22.1-25.9v3.7h-3.1v-3.7Zm-3.1,9.1h3.1V470h-3.1Zm27.2,2.3a8.8,8.8,0,0,0-3.5.6,7.78,7.78,0,0,1-6.5,12.5h-.1a14.07,14.07,0,0,1-4-.6,2.12,2.12,0,0,0-1.8,2.1c0,1,.7,1.6,1.9,1.6,10.6,0,14,1.9,14,6.3,0,3.3-3.2,6-10.2,6-6.3,0-9.7-1.7-9.7-5.4,0-2.2,1.4-3.3,3.8-4.6a3.65,3.65,0,0,1-2.8-3.2c0-1.9,1.3-2.8,3-3.8a7.59,7.59,0,0,1-3.1-6.3c0-4.7,3.7-7.9,8.5-7.9a8.87,8.87,0,0,1,5.6,1.6,10.72,10.72,0,0,1,4.8-2v3.1ZM193.1,469c-4.9,0-6.3,2.2-6.3,3.8s1,2.8,7.3,2.8c3.7,0,6.7-1,6.8-3.2s-2.3-3.4-7.8-3.4Zm.2-19.2c-3.5,0-5.4,2.2-5.4,5.2s2.3,5.2,5.8,5.2,5.4-2.3,5.4-5c-.1-3.3-2-5.4-5.8-5.4Zm17.2-2.3v3h.1c1.8-2,4.1-3.5,6.6-3.5,3.3,0,6.5,1.7,6.5,6.6V470h-3.1V453.8c0-3-1.4-4-3.7-4s-5,1.9-6.4,3.4V470h-3.1V447.6h3.1Zm36.1,17.7c-1.5,2.5-3.5,5.2-8.6,5.2s-9.8-3.5-9.8-11.7c0-7.3,3.6-11.7,9.2-11.7,4.7,0,8.5,3,8.5,10.2v2.1H231.3c0,4.9,2.9,8.4,6.6,8.4a7,7,0,0,0,6.2-3.8l2.5,1.3Zm-3.8-8.5c0-4.1-2-6.9-5.4-6.9-3.8,0-5.8,2.8-6,6.9Zm24.4-17.9V465a26.8,26.8,0,0,0,.2,4.9h-2.8l-.4-2.2a7.28,7.28,0,0,1-5.9,2.6c-4,0-9.2-2.7-9.2-11.7,0-8.7,5.2-11.7,9-11.7a9.74,9.74,0,0,1,5.9,2.5l.2.1V438.6h3Zm-3.1,14.1c-1.7-1.9-3.8-3.1-5.7-3.1-3.6,0-6.3,2.4-6.3,9.2,0,5.7,2.5,8.8,6.3,8.8,2,0,3.5-.9,5.7-3ZM287,470V450.2h-3.8v-2.7H287V445c0-5.3,1.8-6.6,5.5-6.6l2.8.2v2.8l-2.2-.3c-2.1,0-2.9.7-2.9,3.2v3.3h4.9v2.7h-4.9V470Zm19.1.4c-6.1,0-9.2-5.2-9.2-11.7S300,447,306.1,447s9.2,5.2,9.2,11.7S312.2,470.4,306.1,470.4Zm0-20.6c-3.7,0-6.1,3.2-6.1,9s2.4,9,6.1,9,6.1-3.2,6.1-9S309.8,449.8,306.1,449.8Zm12.7-2.3h3.1v4.4h.1c1.7-3.1,3.6-4.8,7.3-4.8v3.1c-3.9.1-5.9,2.6-7.4,7.3V470h-3.1V447.5Zm29.9-8.7V470h-3.1V438.8Zm11-.4v3.7h-3.1v-3.7Zm-3.2,9.1h3.1V470h-3.1ZM368,470V450.2h-3.8v-2.7H368V445c0-5.3,1.8-6.6,5.5-6.6l2.8.2v2.8l-2.2-.3c-2.1,0-2.9.7-2.9,3.2v3.3h4.9v2.7h-4.9V470Zm28.4-4.8c-1.5,2.5-3.5,5.2-8.6,5.2s-9.8-3.5-9.8-11.7c0-7.3,3.6-11.7,9.2-11.7,4.7,0,8.5,3,8.5,10.2v2.1H381.1c0,4.9,2.9,8.4,6.6,8.4a7,7,0,0,0,6.2-3.8l2.5,1.3Zm-3.8-8.5c0-4.1-2-6.9-5.4-6.9-3.8,0-5.8,2.8-6,6.9Z" transform="translate(-109.2 -290.1)"/><path class="cls-1" d="M109.4,388.1A35.1,35.1,0,0,0,141,406c14,0,23-9.3,23-21.4,0-10.5-6.5-17.2-18.8-23.9-18.3-10-32-16.7-32-34.2,0-16.3,13.7-29.3,36.5-29.3,9,0,15.3.7,18.6.7l3.3.2H176v18.3c-4.4-7.4-12.5-11.4-23.2-11.4-15.5,0-23.7,7.6-23.7,17.7,0,12.5,10.7,17.7,24.4,24.9,17.9,9.5,27,18.6,27,32.3,0,18.1-16.7,34.1-40.2,34.1a90.11,90.11,0,0,1-31.1-6.7V388.1Zm78.9-48.5V334l8.6-.7.4-21.8,12.8-3.9-.5,25.6h14.2c1.1,0,1.4,0,1.4,1.1,0,3.5-4.7,5.3-14.2,5.3h-1.4l-.9,46.2V387c0,11.2,2.3,16.5,9,16.5,3.9,0,7-1.8,10.4-5.3l-.5,7.9a21.82,21.82,0,0,1-16.7,7.7c-9.8,0-14.9-7.4-14.9-22.1v-1.4l.9-50.4-8.6-.3Z" transform="translate(-109.2 -290.1)"/><path class="cls-1" d="M262.7,361.4v-7.2c0-31.4,0-49.1-4.4-53.6h10.8c20.4,0,35.1-.5,44.2-.5.7,0,2.6.2,6.1.2l1.4,16.4c-3.3-8.7-13.4-9.6-31.8-9.6h-9.8c-1.2,5.4-1.6,17.6-1.6,36.7v5.8c4,.3,8.6.3,13.6.3,11.2,0,21.1-.3,29.9-1.9-8.2,9.4-21,10.1-38.9,10.1l-4.5-.2v11.4c0,19,.3,31.4,1.6,36.9h10.1c19.7,0,32.1-2.1,39.5-12.1l-3,17.5a92.9,92.9,0,0,1-17.5,1.4c-9.3,0-21.1-.4-35.8-.4H258.3c4.2-4.4,4.4-21.2,4.4-51.2Zm138.4,8.9c0,25,0,38.8,4.4,42.3l-16.4,1a46.09,46.09,0,0,1-.7-7.7v-2.1a27.9,27.9,0,0,1-23.2,10.8c-18.5,0-31.1-15-31.1-38.3,0-26.7,17.1-43.8,46.6-43.8,2.1,0,4.9,0,8.4.3V314.5c0-10.5-.3-17.5-3.1-21.8l17.6-2.6C402.7,297.5,401.1,324.2,401.1,370.3Zm-12.2,10.8c0-22.2,0-34.9-1.2-38.1-1.2-3-4.5-4.4-10.1-4.4-17.8,0-29.5,12.8-29.5,34.9,0,20.1,11.2,31.8,24.8,31.8,14.3.1,16-9.2,16-24.2Zm71.6-31.8c-8,31.8-16.4,52.6-19.2,64.1H430c-8.4-47.5-13.8-74.1-19-78.9l10-.7,2.8-.3c6.5,0,7.7,21.8,15,68.8,11.4-30.9,16.4-50.6,16.4-58.7a14,14,0,0,0-2.8-9.1h21.1a10.57,10.57,0,0,0-1.7,5.9c0,4.7,5.2,25.3,14.5,61.8,7.9-28.3,12.2-48.4,12.2-60.6a10.74,10.74,0,0,0-2.3-7.2h16.4c-6.1,8.2-13.1,34.8-23.4,78.9h-11c-8.8-33.4-14.5-54.9-17.7-64Zm97,50.7a24,24,0,0,1-22.2,14.7c-12.4,0-22-8.7-22-18.3,0-11.5,10.8-16.9,28.8-24.8,12.8-5.6,15.5-7.3,15.5-17.5,0-11-4.5-15.9-14.7-15.9-4.7,0-8.6,1.7-10.7,4.7-2.6,3.7-3.1,11.5-10.3,11.5a6.2,6.2,0,0,1-6.5-5.88c0-.21,0-.41,0-.62,0-8.2,11.5-15.4,33.2-15.4,15.5,0,21.7,4.9,21.7,16.8,0,5.8-.9,16.9-.9,34.1,0,16.9,1.9,26.7,5.9,29.2l-15.7,1a46.23,46.23,0,0,1-2.1-13.6Zm-29.9-7c0,6.6,5.4,11.4,13.6,11.4,11,0,15.9-7,15.9-21.5V370.7c-18.9,7.4-29.5,11.8-29.5,22.3Zm59.3-2.6V368.2c0-19.2-.2-29.5-3.7-32,7.7-1.2,12.1-2.1,13.1-2.1,3.1,0,2.6,3,3,10.7,5.4-8.4,11-12.2,18.5-12.2,5.9,0,9.4,2.8,9.4,6.6,0,3.3-2.4,5.2-6.8,5.2-3,0-6.1-.5-9.4-.5-10.5,0-11.7,5.9-11.7,27.2l.2,22c0,10.7.7,16.9,3.7,19.4H583.3c3.2-2.4,3.6-9.7,3.6-22.1Zm105.5-20.1c0,25,0,38.8,4.4,42.3l-16.4,1a46.09,46.09,0,0,1-.7-7.7v-2.1a27.9,27.9,0,0,1-23.2,10.8c-18.5,0-31.1-15-31.1-38.3,0-26.7,17.1-43.8,46.6-43.8,2.1,0,4.9,0,8.4.3V314.5c0-10.5-.3-17.5-3.1-21.8l17.6-2.6C694,297.5,692.4,324.2,692.4,370.3Zm-12.2,10.8c0-22.2,0-34.9-1.2-38.1-1.2-3-4.5-4.4-10.1-4.4-17.8,0-29.5,12.8-29.5,34.9,0,20.1,11.2,31.8,24.8,31.8,14.2.1,16-9.2,16-24.2Z" transform="translate(-109.2 -290.1)"/></svg>