<?xml version="1.0" encoding="UTF-8"?>
<svg width="195px" height="196px" viewBox="0 0 195 196" version="1.1" xmlns="http://www.w3.org/2000/svg" xmlns:xlink="http://www.w3.org/1999/xlink">
    <!-- Generator: Sketch 64 (93537) - https://sketch.com -->
    <title>Group 27</title>
    <desc>Created with Sketch.</desc>
    <defs>
        <polygon id="path-1" points="0 195.518 194.656 195.518 194.656 0 0 0"></polygon>
    </defs>
    <g id="Page-1" stroke="none" stroke-width="1" fill="none" fill-rule="evenodd">
        <g id="Artboard" transform="translate(-328.000000, -175.000000)">
            <g id="Group-27" transform="translate(328.000000, 175.000000)">
                <path d="M11.291,144.1417 C8.84,137.6397 6.602,131.0747 4.576,124.4477 C2.551,117.8207 1.025,112.2817 0,107.8297 L8.703,107.4547 C9.278,110.3567 10.372,114.5517 11.985,120.0397 C13.598,125.5297 15.43,131.2127 17.48,137.0897 C19.531,142.9667 21.494,147.9427 23.37,152.0187 L24.833,152.0187 C26.258,149.0687 27.996,144.6797 30.047,138.8517 C32.097,133.0257 34.017,127.1297 35.805,121.1657 C37.593,115.2017 38.812,110.6307 39.462,107.4547 L48.165,107.8297 C47.265,111.8567 45.833,117.1267 43.87,123.6417 C41.906,130.1557 39.687,136.7457 37.211,143.4107 C34.736,150.0747 32.31,155.6337 29.935,160.0837 L18.268,160.0837 C16.067,155.9577 13.742,150.6437 11.291,144.1417" id="Fill-1" fill="#025448"></path>
                <mask id="mask-2" fill="white">
                    <use xlink:href="#path-1"></use>
                </mask>
                <g id="Clip-4"></g>
                <path d="M53.249,160.085 L61.202,160.085 L61.202,122.085 L53.249,122.085 L53.249,160.085 Z M52.274,113.044 C52.274,110.369 53.912,109.03 57.188,109.03 C60.438,109.03 62.064,110.394 62.064,113.119 C62.064,114.37 61.676,115.358 60.902,116.083 C60.126,116.808 58.913,117.171 57.263,117.171 C53.937,117.171 52.274,115.796 52.274,113.044 L52.274,113.044 Z" id="Fill-3" fill="#025448" mask="url(#mask-2)"></path>
                <path d="M73.8233,159.7467 C71.4093,159.0457 69.3273,158.2077 67.5773,157.2327 L69.8653,151.5307 C71.9663,152.5577 73.9793,153.3007 75.9053,153.7637 C77.8303,154.2267 79.7813,154.4567 81.7573,154.4567 C83.0323,154.4567 84.1513,154.2067 85.1143,153.7067 C86.0763,153.2067 86.8143,152.5507 87.3273,151.7377 C87.8403,150.9257 88.0963,150.0807 88.0963,149.2057 C88.0963,148.3557 87.8653,147.5997 87.4023,146.9357 C86.9393,146.2737 86.1273,145.6107 84.9643,144.9477 C83.8023,144.2857 82.1443,143.5657 79.9943,142.7907 C77.2683,141.8667 75.1603,141.0407 73.6733,140.3157 C72.1853,139.5897 70.9593,138.5597 69.9973,137.2207 C69.0343,135.8827 68.5523,134.1137 68.5523,131.9127 C68.5523,129.6117 69.1343,127.6617 70.2973,126.0607 C71.4603,124.4607 73.0793,123.2537 75.1553,122.4407 C77.2303,121.6287 79.6063,121.2217 82.2823,121.2217 C84.7583,121.2217 87.0143,121.4657 89.0533,121.9537 C91.0913,122.4407 93.0483,123.1727 94.9243,124.1477 L92.7483,129.6247 C90.8973,128.8997 89.2713,128.3747 87.8713,128.0487 C86.4703,127.7247 85.0583,127.5617 83.6333,127.5617 C81.2323,127.5617 79.4123,127.9427 78.1753,128.7047 C76.9373,129.4687 76.3183,130.6877 76.3183,132.3627 C76.3183,133.2387 76.5733,133.9517 77.0873,134.5007 C77.5993,135.0517 78.2493,135.4827 79.0373,135.7957 C79.8253,136.1077 80.9063,136.4517 82.2823,136.8267 C82.5573,136.9017 82.8823,136.9957 83.2573,137.1077 C83.6333,137.2207 84.0703,137.3517 84.5703,137.5017 C87.3463,138.4277 89.5533,139.4277 91.1913,140.5027 C92.8293,141.5787 94.0233,142.8347 94.7733,144.2727 C95.5243,145.7107 95.8993,147.4427 95.8993,149.4677 C95.8993,151.5937 95.2993,153.5187 94.0983,155.2447 C92.8983,156.9707 91.2413,158.3277 89.1283,159.3157 C87.0143,160.3027 84.6453,160.7967 82.0193,160.7967 C78.9683,160.7967 76.2363,160.4467 73.8233,159.7467" id="Fill-5" fill="#025448" mask="url(#mask-2)"></path>
                <path d="M107.044,157.8146 C105.218,155.8266 104.306,152.8696 104.306,148.9436 L104.306,128.1986 L99.879,128.1986 L99.879,122.8726 L104.306,122.0846 L105.281,112.7816 L112.296,112.7816 L112.296,122.0846 L121.036,122.0846 L121.036,128.1986 L112.296,128.1986 L112.296,148.1926 C112.296,150.0936 112.615,151.5686 113.252,152.6196 C113.89,153.6696 114.959,154.1946 116.46,154.1946 C117.46,154.1946 118.322,154.1016 119.048,153.9136 C119.773,153.7256 120.417,153.5136 120.98,153.2756 C121.543,153.0386 121.923,152.8816 122.124,152.8066 L124.187,158.2456 C122.561,159.0966 121.029,159.7346 119.592,160.1586 C118.153,160.5836 116.447,160.7966 114.471,160.7966 C111.345,160.7966 108.869,159.8026 107.044,157.8146" id="Fill-6" fill="#025448" mask="url(#mask-2)"></path>
                <path d="M130.1958,126.6813 C135.5678,122.9833 141.0148,121.1343 146.5378,121.1343 C148.9868,121.1343 151.5118,121.5213 154.1118,122.2953 L152.9108,128.4803 C151.0368,128.1313 149.4008,127.9553 148.0008,127.9553 C144.3518,127.9553 141.0658,128.9553 138.1418,130.9543 L138.1418,159.8933 L130.1958,159.8933 L130.1958,126.6813 Z" id="Fill-7" fill="#025448" mask="url(#mask-2)"></path>
                <path d="M164.1431,172.4904 C167.1661,168.7664 170.0401,164.4304 172.7641,159.4834 L171.5641,159.4834 C167.9661,153.1854 165.0861,146.9004 162.9251,140.6284 C160.7621,134.3554 159.1951,127.9834 158.2201,121.5104 L166.7291,121.1364 C167.3791,126.6334 168.5471,132.1944 170.2351,137.8164 C171.9201,143.4394 173.9141,148.3754 176.2121,152.6224 L176.6621,152.6224 C178.4121,149.4494 179.9481,145.9384 181.2741,142.0904 C182.5981,138.2414 183.6661,134.4934 184.4781,130.8444 C185.2901,127.1954 185.8331,123.9594 186.1081,121.1364 L194.6561,121.5104 C194.2061,125.4344 193.2881,129.7764 191.9001,134.5364 C190.5131,139.2974 188.8761,143.8954 186.9891,148.3314 C185.1031,152.7674 183.2101,156.4844 181.3101,159.4834 C179.8611,162.2564 178.2551,165.1674 176.4941,168.2174 C174.7321,171.2654 173.0891,173.8644 171.5641,176.0134 L164.1431,172.4904 Z" id="Fill-8" fill="#025448" mask="url(#mask-2)"></path>
                <path d="M40.6314,183.7335 C41.6444,183.7335 42.4674,183.4625 43.0994,182.9215 C43.7324,182.3805 44.0484,181.5655 44.0484,180.4755 C44.0484,179.2555 43.7234,178.4105 43.0714,177.9375 C42.4204,177.4655 41.5764,177.2295 40.5394,177.2295 L38.2534,177.2295 L38.2534,183.7335 L40.6314,183.7335 Z M35.6934,175.1825 L40.9514,175.1825 C42.1094,175.1825 43.1064,175.3795 43.9404,175.7715 C44.7744,176.1645 45.4144,176.7415 45.8604,177.5035 C46.3064,178.2655 46.5294,179.1915 46.5294,180.2805 C46.5294,181.4925 46.2734,182.5075 45.7634,183.3275 C45.2534,184.1475 44.5534,184.7545 43.6654,185.1505 C42.7784,185.5465 41.7624,185.7445 40.6194,185.7445 L38.2534,185.7445 L38.2534,191.1055 L35.6934,191.1055 L35.6934,175.1825 Z" id="Fill-9" fill="#025448" mask="url(#mask-2)"></path>
                <path d="M53.3076,189.3107 C53.7646,189.1287 54.1346,188.9147 54.4156,188.6707 L54.4156,185.4937 L51.9936,185.7107 C51.3906,185.7557 50.8726,185.9317 50.4386,186.2367 C50.0036,186.5407 49.7866,187.0097 49.7866,187.6417 C49.7866,188.3577 49.9716,188.8617 50.3416,189.1507 C50.7106,189.4407 51.2046,189.5847 51.8216,189.5847 C52.3546,189.5847 52.8496,189.4947 53.3076,189.3107 M48.4666,190.4657 C47.8076,189.8937 47.4776,189.0137 47.4776,187.8257 C47.4776,186.6977 47.8616,185.8527 48.6266,185.2877 C49.3926,184.7247 50.3896,184.3887 51.6156,184.2817 L54.4156,184.0307 L54.4156,183.1617 C54.4156,182.5977 54.2296,182.1407 53.8556,181.7897 C53.4826,181.4397 52.8466,181.2647 51.9476,181.2647 C51.4746,181.2647 50.9966,181.3327 50.5126,181.4697 C50.0286,181.6067 49.5156,181.7897 48.9756,182.0187 L48.2556,180.3497 C48.8876,180.0147 49.5156,179.7497 50.1416,179.5557 C50.7656,179.3617 51.4936,179.2637 52.3246,179.2637 C53.6966,179.2637 54.7876,179.5767 55.5996,180.2017 C56.4116,180.8267 56.8166,181.8627 56.8166,183.3097 L56.8166,191.1057 L54.6796,191.1057 L54.4616,190.0657 C54.1266,190.3777 53.6696,190.6657 53.0906,190.9287 C52.5116,191.1907 51.8486,191.3237 51.1006,191.3237 C50.0036,191.3237 49.1256,191.0367 48.4666,190.4657" id="Fill-10" fill="#025448" mask="url(#mask-2)"></path>
                <path d="M59.6406,180.9787 C61.2796,179.8517 62.9396,179.2877 64.6246,179.2877 C65.3706,179.2877 66.1406,179.4047 66.9326,179.6407 L66.5676,181.5277 C65.9956,181.4197 65.4966,181.3667 65.0706,181.3667 C63.9576,181.3667 62.9556,181.6717 62.0636,182.2807 L62.0636,191.1057 L59.6406,191.1057 L59.6406,180.9787 Z" id="Fill-11" fill="#025448" mask="url(#mask-2)"></path>
                <path d="M69.7798,190.4137 C69.2238,189.8087 68.9458,188.9077 68.9458,187.7107 L68.9458,181.3907 L67.5968,181.3907 L67.5968,179.7667 L68.9458,179.5267 L69.2428,176.6917 L71.3798,176.6917 L71.3798,179.5267 L74.0428,179.5267 L74.0428,181.3907 L71.3798,181.3907 L71.3798,187.4817 C71.3798,188.0607 71.4768,188.5107 71.6718,188.8307 C71.8658,189.1507 72.1918,189.3107 72.6488,189.3107 C72.9528,189.3107 73.2168,189.2827 73.4378,189.2257 C73.6588,189.1687 73.8548,189.1037 74.0258,189.0317 C74.1978,188.9577 74.3138,188.9107 74.3748,188.8887 L75.0038,190.5457 C74.5078,190.8047 74.0418,190.9997 73.6038,191.1277 C73.1648,191.2587 72.6448,191.3237 72.0428,191.3237 C71.0908,191.3237 70.3358,191.0197 69.7798,190.4137" id="Fill-12" fill="#025448" mask="url(#mask-2)"></path>
                <path d="M76.7075,181.2067 C77.4235,180.7187 78.3115,180.2737 79.3705,179.8697 C80.4295,179.4657 81.5495,179.2637 82.7305,179.2637 C84.1555,179.2637 85.1885,179.6637 85.8285,180.4647 C86.4685,181.2647 86.7895,182.3007 86.7895,183.5727 L86.7895,191.1057 L84.3655,191.1057 L84.3655,183.7337 C84.3655,183.0557 84.2155,182.4797 83.9145,182.0067 C83.6135,181.5347 83.0855,181.2987 82.3315,181.2987 C81.8205,181.2987 81.2735,181.4107 80.6905,181.6357 C80.1075,181.8607 79.5875,182.1097 79.1305,182.3837 L79.1305,191.1057 L76.7075,191.1057 L76.7075,181.2067 Z" id="Fill-13" fill="#025448" mask="url(#mask-2)"></path>
                <path d="M94.6416,184.5334 C95.3576,184.5334 95.8856,184.4394 96.2246,184.2534 C96.5636,184.0664 96.7336,183.7184 96.7336,183.2074 C96.7336,182.7504 96.6096,182.3634 96.3616,182.0474 C96.1146,181.7314 95.7956,181.4944 95.4076,181.3384 C95.0186,181.1814 94.6106,181.1034 94.1836,181.1034 C93.2776,181.1034 92.5516,181.4124 92.0066,182.0304 C91.4616,182.6474 91.1516,183.4824 91.0756,184.5334 L94.6416,184.5334 Z M90.1786,189.7284 C89.2366,188.6654 88.7666,187.1514 88.7666,185.1854 C88.7666,183.9204 88.9936,182.8444 89.4466,181.9554 C89.8996,181.0674 90.5366,180.3974 91.3556,179.9444 C92.1746,179.4904 93.1366,179.2634 94.2416,179.2634 C95.1176,179.2634 95.9156,179.4334 96.6366,179.7724 C97.3566,180.1124 97.9256,180.5734 98.3456,181.1554 C98.7646,181.7384 98.9736,182.3814 98.9736,183.0824 C98.9736,184.0264 98.6826,184.7504 98.0996,185.2534 C97.5166,185.7564 96.5356,186.0074 95.1556,186.0074 L91.1206,186.0074 C91.2206,187.0974 91.5576,187.9334 92.1326,188.5164 C92.7076,189.0994 93.5746,189.3914 94.7336,189.3914 C95.7166,189.3914 96.7336,189.1284 97.7856,188.6024 L98.4936,190.2024 C97.8306,190.5684 97.1606,190.8464 96.4816,191.0364 C95.8036,191.2274 95.0766,191.3234 94.2986,191.3234 C92.4936,191.3234 91.1196,190.7914 90.1786,189.7284 L90.1786,189.7284 Z" id="Fill-14" fill="#025448" mask="url(#mask-2)"></path>
                <path d="M101.0654,180.9787 C102.7044,179.8517 104.3654,179.2877 106.0494,179.2877 C106.7954,179.2877 107.5654,179.4047 108.3584,179.6407 L107.9924,181.5277 C107.4214,181.4197 106.9214,181.3667 106.4954,181.3667 C105.3824,181.3667 104.3804,181.6717 103.4894,182.2807 L103.4894,191.1057 L101.0654,191.1057 L101.0654,180.9787 Z" id="Fill-15" fill="#025448" mask="url(#mask-2)"></path>
                <path d="M110.6055,191.0026 C109.8695,190.7896 109.2355,190.5346 108.7025,190.2366 L109.3995,188.4996 C110.0395,188.8116 110.6525,189.0386 111.2395,189.1796 C111.8265,189.3206 112.4205,189.3916 113.0225,189.3916 C113.4115,189.3916 113.7515,189.3156 114.0455,189.1626 C114.3395,189.0096 114.5635,188.8096 114.7205,188.5626 C114.8765,188.3146 114.9545,188.0576 114.9545,187.7916 C114.9545,187.5316 114.8845,187.3016 114.7425,187.0996 C114.6025,186.8976 114.3545,186.6956 114.0005,186.4936 C113.6465,186.2916 113.1405,186.0726 112.4855,185.8366 C111.6545,185.5546 111.0135,185.3026 110.5595,185.0826 C110.1065,184.8616 109.7325,184.5466 109.4395,184.1386 C109.1465,183.7316 108.9995,183.1916 108.9995,182.5216 C108.9995,181.8196 109.1765,181.2266 109.5315,180.7386 C109.8855,180.2516 110.3785,179.8826 111.0105,179.6356 C111.6435,179.3886 112.3675,179.2636 113.1825,179.2636 C113.9375,179.2636 114.6255,179.3376 115.2465,179.4866 C115.8675,179.6356 116.4635,179.8576 117.0345,180.1546 L116.3715,181.8246 C115.8075,181.6036 115.3125,181.4426 114.8855,181.3436 C114.4595,181.2446 114.0285,181.1956 113.5945,181.1956 C112.8625,181.1956 112.3085,181.3116 111.9315,181.5436 C111.5535,181.7766 111.3655,182.1486 111.3655,182.6586 C111.3655,182.9256 111.4435,183.1426 111.5995,183.3096 C111.7555,183.4776 111.9545,183.6096 112.1935,183.7046 C112.4345,183.7996 112.7635,183.9046 113.1825,184.0196 C113.2665,184.0416 113.3655,184.0706 113.4805,184.1046 C113.5945,184.1386 113.7275,184.1786 113.8795,184.2246 C114.7265,184.5066 115.3985,184.8116 115.8975,185.1386 C116.3965,185.4666 116.7605,185.8496 116.9895,186.2886 C117.2175,186.7266 117.3325,187.2536 117.3325,187.8706 C117.3325,188.5196 117.1485,189.1056 116.7835,189.6316 C116.4175,190.1576 115.9125,190.5706 115.2685,190.8716 C114.6255,191.1726 113.9025,191.3236 113.1025,191.3236 C112.1725,191.3236 111.3405,191.2156 110.6055,191.0026" id="Fill-16" fill="#025448" mask="url(#mask-2)"></path>
                <path d="M119.2188,174.6007 L121.6418,174.6007 L121.6418,180.3837 C122.1828,180.0867 122.7768,179.8267 123.4248,179.6007 C124.0728,179.3767 124.7198,179.2637 125.3678,179.2637 C126.2598,179.2637 126.9948,179.4767 127.5738,179.9037 C128.1538,180.3297 128.5738,180.8797 128.8378,181.5497 C129.0998,182.2197 129.2318,182.9407 129.2318,183.7097 L129.2318,191.1057 L126.8308,191.1057 L126.8308,183.7677 C126.8308,183.1807 126.6978,182.6197 126.4308,182.0807 C126.1638,181.5437 125.5968,181.2757 124.7278,181.2757 C124.4388,181.2757 124.0838,181.3327 123.6648,181.4467 C123.2458,181.5607 122.8458,181.7027 122.4648,181.8697 C122.0838,182.0377 121.8098,182.1897 121.6418,182.3277 L121.6418,191.1057 L119.2188,191.1057 L119.2188,174.6007 Z" id="Fill-17" fill="#025448" mask="url(#mask-2)"></path>
                <path d="M132.009,191.106 L134.432,191.106 L134.432,179.527 L132.009,179.527 L132.009,191.106 Z M131.712,176.772 C131.712,175.956 132.211,175.549 133.209,175.549 C134.2,175.549 134.695,175.965 134.695,176.794 C134.695,177.176 134.577,177.477 134.341,177.697 C134.105,177.919 133.735,178.029 133.232,178.029 C132.219,178.029 131.712,177.611 131.712,176.772 L131.712,176.772 Z" id="Fill-18" fill="#025448" mask="url(#mask-2)"></path>
                <path d="M143.9258,188.6945 C144.4248,188.2815 144.7828,187.7625 144.9998,187.1335 C145.2178,186.5045 145.3258,185.8435 145.3258,185.1505 C145.3258,183.8465 145.0708,182.8825 144.5608,182.2585 C144.0498,181.6335 143.3298,181.3205 142.3998,181.3205 C141.9118,181.3205 141.4338,181.4175 140.9658,181.6065 C140.4968,181.7975 140.0828,182.0105 139.7248,182.2465 L139.7248,188.9105 C140.0908,189.0405 140.4358,189.1395 140.7588,189.2075 C141.0838,189.2775 141.4928,189.3105 141.9888,189.3105 C142.7808,189.3105 143.4258,189.1055 143.9258,188.6945 L143.9258,188.6945 Z M137.3018,181.0355 C137.6218,180.7915 138.0678,180.5345 138.6388,180.2645 C139.2108,179.9935 139.8338,179.7635 140.5088,179.5725 C141.1828,179.3815 141.8238,179.2875 142.4338,179.2875 C143.5928,179.2875 144.5548,179.4815 145.3208,179.8695 C146.0858,180.2585 146.6668,180.8845 147.0638,181.7505 C147.4598,182.6145 147.6578,183.7475 147.6578,185.1505 C147.6578,186.2555 147.4768,187.2745 147.1148,188.2075 C146.7528,189.1415 146.1908,189.8945 145.4288,190.4655 C144.6668,191.0365 143.7148,191.3235 142.5718,191.3235 C142.0988,191.3235 141.6918,191.2995 141.3478,191.2545 C141.0058,191.2085 140.7418,191.1595 140.5598,191.1055 C140.3768,191.0515 140.0988,190.9645 139.7248,190.8425 L139.7248,195.5185 L137.3018,195.5185 L137.3018,181.0355 Z" id="Fill-19" fill="#025448" mask="url(#mask-2)"></path>
                <path d="M150.7505,191.0026 C150.0155,190.7896 149.3805,190.5346 148.8475,190.2366 L149.5445,188.4996 C150.1845,188.8116 150.7975,189.0386 151.3855,189.1796 C151.9715,189.3206 152.5655,189.3916 153.1675,189.3916 C153.5565,189.3916 153.8975,189.3156 154.1915,189.1626 C154.4845,189.0096 154.7095,188.8096 154.8655,188.5626 C155.0215,188.3146 155.1005,188.0576 155.1005,187.7916 C155.1005,187.5316 155.0295,187.3016 154.8885,187.0996 C154.7475,186.8976 154.4995,186.6956 154.1455,186.4936 C153.7915,186.2916 153.2865,186.0726 152.6305,185.8366 C151.7995,185.5546 151.1585,185.3026 150.7045,185.0826 C150.2515,184.8616 149.8775,184.5466 149.5845,184.1386 C149.2915,183.7316 149.1445,183.1916 149.1445,182.5216 C149.1445,181.8196 149.3215,181.2266 149.6765,180.7386 C150.0305,180.2516 150.5235,179.8826 151.1565,179.6356 C151.7885,179.3886 152.5125,179.2636 153.3275,179.2636 C154.0825,179.2636 154.7705,179.3376 155.3915,179.4866 C156.0125,179.6356 156.6085,179.8576 157.1805,180.1546 L156.5175,181.8246 C155.9535,181.6036 155.4585,181.4426 155.0305,181.3436 C154.6045,181.2446 154.1735,181.1956 153.7395,181.1956 C153.0085,181.1956 152.4535,181.3116 152.0765,181.5436 C151.6995,181.7766 151.5105,182.1486 151.5105,182.6586 C151.5105,182.9256 151.5885,183.1426 151.7455,183.3096 C151.9005,183.4776 152.0995,183.6096 152.3395,183.7046 C152.5795,183.7996 152.9085,183.9046 153.3275,184.0196 C153.4125,184.0416 153.5105,184.0706 153.6255,184.1046 C153.7395,184.1386 153.8725,184.1786 154.0255,184.2246 C154.8715,184.5066 155.5435,184.8116 156.0425,185.1386 C156.5425,185.4666 156.9055,185.8496 157.1345,186.2886 C157.3625,186.7266 157.4775,187.2536 157.4775,187.8706 C157.4775,188.5196 157.2945,189.1056 156.9285,189.6316 C156.5625,190.1576 156.0575,190.5706 155.4145,190.8716 C154.7705,191.1726 154.0475,191.3236 153.2485,191.3236 C152.3175,191.3236 151.4855,191.2156 150.7505,191.0026" id="Fill-20" fill="#025448" mask="url(#mask-2)"></path>
                <path d="M108.189,0.0001 C106.621,7.5201 103.055,19.2711 99.993,26.3341 L99.214,26.3341 C96.561,20.4041 93.914,12.0371 92.209,5.4921 L84.79,5.7271 C87.192,14.4351 90.709,25.5131 94.703,33.1601 C96.668,36.9791 102.541,36.9781 104.505,33.1601 C109.198,24.0661 113.479,10.0411 115.771,0.2361 L108.189,0.0001 Z" id="Fill-21" fill="#025448" mask="url(#mask-2)"></path>
                <path d="M91.1826,94.3288 C92.7506,86.8078 96.3166,75.0578 99.3776,67.9948 L100.1576,67.9948 C102.8106,73.9248 105.4576,82.2918 107.1626,88.8368 L114.5816,88.6018 C112.1796,79.8938 108.6626,68.8158 104.6686,61.1688 C102.7036,57.3498 96.8306,57.3508 94.8666,61.1688 C90.1736,70.2618 85.8926,84.2868 83.6006,94.0928 L91.1826,94.3288 Z" id="Fill-22" fill="#025448" mask="url(#mask-2)"></path>
                <path d="M63.0918,16.2179 C68.8208,21.3369 77.2138,30.2999 81.7998,36.4829 L81.4108,37.1579 C74.9478,36.4909 66.3788,34.5989 59.8588,32.8029 L56.3518,39.3449 C65.0948,41.6189 76.4468,44.1129 85.0668,44.4769 C89.3568,44.6849 92.2908,39.5989 89.9668,35.9889 C84.4388,27.3779 74.4328,16.6569 67.0878,9.7699 L63.0918,16.2179 Z" id="Fill-23" fill="#025448" mask="url(#mask-2)"></path>
                <path d="M136.2798,78.1105 C130.5508,72.9915 122.1578,64.0285 117.5718,57.8455 L117.9608,57.1705 C124.4238,57.8385 132.9928,59.7295 139.5128,61.5255 L143.0198,54.9835 C134.2768,52.7095 122.9248,50.2155 114.3048,49.8515 C110.0148,49.6435 107.0808,54.7305 109.4048,58.3395 C114.9328,66.9505 124.9388,77.6715 132.2838,84.5585 L136.2798,78.1105 Z" id="Fill-24" fill="#025448" mask="url(#mask-2)"></path>
                <path d="M54.5884,63.3825 C61.8854,60.9805 73.8444,58.1935 81.4924,57.3125 L81.8824,57.9875 C78.0734,63.2515 72.1504,69.7265 67.3354,74.4755 L71.2474,80.7825 C77.5884,74.3485 85.4234,65.7645 90.0494,58.4815 C92.3744,54.8705 89.4364,49.7855 85.1484,49.9925 C74.9264,50.4755 60.6394,53.7805 51.0024,56.6985 L54.5884,63.3825 Z" id="Fill-25" fill="#025448" mask="url(#mask-2)"></path>
                <path d="M144.7832,30.9464 C137.4862,33.3474 125.5272,36.1354 117.8792,37.0154 L117.4892,36.3404 C121.2982,31.0774 127.2212,24.6014 132.0362,19.8534 L128.1242,13.5454 C121.7832,19.9804 113.9482,28.5644 109.3222,35.8464 C106.9972,39.4584 109.9352,44.5434 114.2232,44.3354 C124.4452,43.8534 138.7322,40.5484 148.3692,37.6304 L144.7832,30.9464 Z" id="Fill-26" fill="#025448" mask="url(#mask-2)"></path>
            </g>
        </g>
    </g>
</svg>